{
  "asset": {
    "version": "2.0"
  },
  "scene": 0,
  "scenes": [
    {
      "nodes": [
        0,
        1
      ]
    }
  ],
  "nodes": [
    {
      "name": "Face",
      "mesh": 0,
      "skin": 0
    },
    {
      "name": "Root"
    }
  ],
  "meshes": [
    {
      "name": "FaceMesh",
      "weights": [
        0,
        0
      ],
      "extras": {
        "targetNames": [
          "Smile",
          "Blink"
        ]
      },
      "primitives": [
        {
          "attributes": {
            "POSITION": 0,
            "NORMAL": 1,
            "TEXCOORD_0": 2,
            "JOINTS_0": 11,
            "WEIGHTS_0": 8
          },
          "targets": [
            {
              "POSITION": 3
            },
            {
              "POSITION": 4
            }
          ]
        }
      ]
    }
  ],
  "animations": [
    {
      "name": "Linear",
      "samplers": [
        {
          "input": 5,
          "output": 6,
          "interpolation": "LINEAR"
        },
        {
          "input": 5,
          "output": 10,
          "interpolation": "STEP"
        }
      ],
      "channels": [
        {
          "sampler": 0,
          "target": {
            "node": 0,
            "path": "weights"
          }
        },
        {
          "sampler": 1,
          "target": {
            "node": 1,
            "path": "translation"
          }
        }
      ]
    }
  ],
  "bufferViews": [
    {
      "buffer": 0,
      "byteOffset": 0,
      "byteLength": 36
    },
    {
      "buffer": 0,
      "byteOffset": 36,
      "byteLength": 36
    },
    {
      "buffer": 0,
      "byteOffset": 72,
      "byteLength": 24
    },
    {
      "buffer": 0,
      "byteOffset": 96,
      "byteLength": 36
    },
    {
      "buffer": 0,
      "byteOffset": 132,
      "byteLength": 36
    },
    {
      "buffer": 0,
      "byteOffset": 168,
      "byteLength": 8
    },
    {
      "buffer": 0,
      "byteOffset": 176,
      "byteLength": 16
    },
    {
      "buffer": 0,
      "byteOffset": 192,
      "byteLength": 48
    },
    {
      "buffer": 0,
      "byteOffset": 240,
      "byteLength": 48
    },
    {
      "buffer": 0,
      "byteOffset": 288,
      "byteLength": 64
    },
    {
      "buffer": 0,
      "byteOffset": 352,
      "byteLength": 24
    },
    {
      "buffer": 0,
      "byteOffset": 376,
      "byteLength": 24
    }
  ],
  "accessors": [
    {
      "bufferView": 0,
      "componentType": 5126,
      "count": 3,
      "type": "VEC3",
      "min": [
        0,
        0,
        0
      ],
      "max": [
        1,
        1,
        0
      ]
    },
    {
      "bufferView": 1,
      "componentType": 5126,
      "count": 3,
      "type": "VEC3",
      "min": [
        0,
        0,
        1
      ],
      "max": [
        0,
        0,
        1
      ]
    },
    {
      "bufferView": 2,
      "componentType": 5126,
      "count": 3,
      "type": "VEC2"
    },
    {
      "bufferView": 3,
      "componentType": 5126,
      "count": 3,
      "type": "VEC3",
      "min": [
        0,
        0,
        0
      ],
      "max": [
        0,
        0,
        1
      ]
    },
    {
      "bufferView": 4,
      "componentType": 5126,
      "count": 3,
      "type": "VEC3",
      "min": [
        0,
        0,
        0
      ],
      "max": [
        0,
        0,
        2
      ]
    },
    {
      "bufferView": 5,
      "componentType": 5126,
      "count": 2,
      "type": "SCALAR"
    },
    {
      "bufferView": 6,
      "componentType": 5126,
      "count": 4,
      "type": "SCALAR"
    },
    {
      "bufferView": 7,
      "componentType": 5126,
      "count": 12,
      "type": "SCALAR"
    },
    {
      "bufferView": 8,
      "componentType": 5126,
      "count": 3,
      "type": "VEC4"
    },
    {
      "bufferView": 9,
      "componentType": 5126,
      "count": 1,
      "type": "MAT4"
    },
    {
      "bufferView": 10,
      "componentType": 5126,
      "count": 2,
      "type": "VEC3",
      "min": [
        0,
        0,
        0
      ],
      "max": [
        0,
        2,
        0
      ]
    },
    {
      "bufferView": 11,
      "componentType": 5123,
      "count": 3,
      "type": "VEC4"
    }
  ],
  "buffers": [
    {
      "byteLength": 400,
      "uri": "data:application/octet-stream;base64,"
    }
  ],
  "skins": [
    {
      "joints": [
        1
      ],
      "skeleton": 1,
      "inverseBindMatrices": 9
    }
  ]
}